<svg width="15" height="19" viewBox="0 0 15 19" fill="none" xmlns="http://www.w3.org/2000/svg">
<path id="icon" fill-rule="evenodd" clip-rule="evenodd" d="M10.6414 9C10.6414 10.66 9.30247 12 7.64376 12C5.98506 12 4.64611 10.66 4.64611 9V3C4.64611 1.34 5.98506 0 7.64376 0C9.30247 0 10.6414 1.34 10.6414 3V9ZM7.64376 14C10.4016 14 12.6399 11.76 12.6399 9H14.6383C14.6383 12.53 12.0303 15.43 8.64298 15.92V19H6.64454V15.92C3.25719 15.43 0.649231 12.53 0.649231 9H2.64767C2.64767 11.76 4.88592 14 7.64376 14Z" fill="white"/>
</svg>
