<svg width="26" height="25" viewBox="0 0 26 25" fill="none" xmlns="http://www.w3.org/2000/svg">
<path id="Vector" d="M22.7222 0C23.4589 0 24.1655 0.292658 24.6864 0.813592C25.2073 1.33453 25.5 2.04107 25.5 2.77778V22.2222C25.5 22.9589 25.2073 23.6655 24.6864 24.1864C24.1655 24.7073 23.4589 25 22.7222 25H3.27778C2.54107 25 1.83453 24.7073 1.31359 24.1864C0.792658 23.6655 0.5 22.9589 0.5 22.2222V2.77778C0.5 2.04107 0.792658 1.33453 1.31359 0.813592C1.83453 0.292658 2.54107 0 3.27778 0H22.7222ZM22.0278 21.5278V14.1667C22.0278 12.9658 21.5507 11.8142 20.7016 10.965C19.8525 10.1159 18.7008 9.63889 17.5 9.63889C16.3194 9.63889 14.9444 10.3611 14.2778 11.4444V9.90278H10.4028V21.5278H14.2778V14.6806C14.2778 13.6111 15.1389 12.7361 16.2083 12.7361C16.724 12.7361 17.2186 12.941 17.5833 13.3056C17.9479 13.6703 18.1528 14.1649 18.1528 14.6806V21.5278H22.0278ZM5.88889 7.72222C6.50773 7.72222 7.10122 7.47639 7.53881 7.03881C7.97639 6.60122 8.22222 6.00773 8.22222 5.38889C8.22222 4.09722 7.18056 3.04167 5.88889 3.04167C5.26637 3.04167 4.66934 3.28896 4.22915 3.72915C3.78896 4.16934 3.54167 4.76637 3.54167 5.38889C3.54167 6.68056 4.59722 7.72222 5.88889 7.72222ZM7.81944 21.5278V9.90278H3.97222V21.5278H7.81944Z" fill="#09244B"/>
</svg>
