<svg width="204" height="40" viewBox="0 0 204 40" fill="none" xmlns="http://www.w3.org/2000/svg">
<g id="Logo" clip-path="url(#clip0_3468_283)">
<g id="Group">
<g id="Clip path group">
<mask id="mask0_3468_283" style="mask-type:luminance" maskUnits="userSpaceOnUse" x="0" y="0" width="204" height="40">
<g id="SVGID_2_">
<path id="Vector" d="M203.223 0H0V40H203.223V0Z" fill="white"/>
</g>
</mask>
<g mask="url(#mask0_3468_283)">
<path id="Vector_2" d="M20.0519 28.9884L15.2101 13.225H15.0856C15.2585 16.4344 15.3484 18.5717 15.3484 19.6438V28.9884H11.5442V8.89502H17.3474L22.1062 24.2642H22.1892L27.2315 8.89502H33.0348V28.9953H29.0645V19.4778C29.0645 19.0282 29.0714 18.5094 29.0853 17.9215C29.0991 17.3335 29.1613 15.7773 29.272 13.2457H29.1475L23.9668 28.9815H20.0519V28.9884Z" fill="#CC00FF"/>
</g>
</g>
<g id="Clip path group_2">
<mask id="mask1_3468_283" style="mask-type:luminance" maskUnits="userSpaceOnUse" x="0" y="0" width="204" height="40">
<g id="SVGID_2__2">
<path id="Vector_3" d="M203.223 0H0V40H203.223V0Z" fill="white"/>
</g>
</mask>
<g mask="url(#mask1_3468_283)">
<path id="Vector_4" d="M68.2483 28.9884H63.9875V12.4434H58.5302V8.89502H73.7057V12.4434H68.2483V28.9884Z" fill="#CC00FF"/>
</g>
</g>
<g id="Clip path group_3">
<mask id="mask2_3468_283" style="mask-type:luminance" maskUnits="userSpaceOnUse" x="0" y="0" width="204" height="40">
<g id="SVGID_2__3">
<path id="Vector_5" d="M203.223 0H0V40H203.223V0Z" fill="white"/>
</g>
</mask>
<g mask="url(#mask2_3468_283)">
<path id="Vector_6" d="M93.2664 28.9884H89.0195V20.3147H81.0583V28.9884H76.7975V8.89502H81.0583V16.7733H89.0195V8.89502H93.2664V28.9884Z" fill="#CC00FF"/>
</g>
</g>
<g id="Clip path group_4">
<mask id="mask3_3468_283" style="mask-type:luminance" maskUnits="userSpaceOnUse" x="0" y="0" width="204" height="40">
<g id="SVGID_2__4">
<path id="Vector_7" d="M203.223 0H0V40H203.223V0Z" fill="white"/>
</g>
</mask>
<g mask="url(#mask3_3468_283)">
<path id="Vector_8" d="M109.915 28.9884H98.3434V8.89502H109.915V12.388H102.604V16.801H109.403V20.287H102.604V25.4746H109.915V28.9884Z" fill="#CC00FF"/>
</g>
</g>
<g id="Clip path group_5">
<mask id="mask4_3468_283" style="mask-type:luminance" maskUnits="userSpaceOnUse" x="0" y="0" width="204" height="40">
<g id="SVGID_2__5">
<path id="Vector_9" d="M203.223 0H0V40H203.223V0Z" fill="white"/>
</g>
</mask>
<g mask="url(#mask4_3468_283)">
<path id="Vector_10" d="M118.368 21.2761V28.9884H114.107V8.89502H119.965C122.698 8.89502 124.717 9.39303 126.024 10.3891C127.339 11.3851 127.989 12.8929 127.989 14.9196C127.989 16.1024 127.664 17.1537 127.014 18.0736C126.363 18.9936 125.443 19.7199 124.254 20.2386C127.276 24.7553 129.248 27.6742 130.168 28.9953H125.437L120.636 21.2831H118.368V21.2761ZM118.368 17.8177H119.744C121.093 17.8177 122.089 17.5964 122.725 17.1468C123.368 16.6972 123.687 15.9917 123.687 15.0302C123.687 14.0757 123.362 13.3979 122.704 12.9967C122.047 12.5955 121.031 12.3949 119.661 12.3949H118.368V17.8177Z" fill="#CC00FF"/>
</g>
</g>
<g id="Clip path group_6">
<mask id="mask5_3468_283" style="mask-type:luminance" maskUnits="userSpaceOnUse" x="0" y="0" width="204" height="40">
<g id="SVGID_2__6">
<path id="Vector_11" d="M203.223 0H0V40H203.223V0Z" fill="white"/>
</g>
</mask>
<g mask="url(#mask5_3468_283)">
<path id="Vector_12" d="M144.555 23.4133C144.555 25.2255 143.905 26.6573 142.597 27.7018C141.29 28.7462 139.478 29.265 137.147 29.265C135.003 29.265 133.107 28.8638 131.454 28.0545V24.0981C132.81 24.6999 133.958 25.1287 134.899 25.3777C135.839 25.6267 136.697 25.7512 137.479 25.7512C138.413 25.7512 139.132 25.5714 139.63 25.2186C140.128 24.8589 140.377 24.3333 140.377 23.6208C140.377 23.2266 140.266 22.8738 140.045 22.5695C139.824 22.2651 139.505 21.9677 139.077 21.6841C138.655 21.4005 137.783 20.944 136.469 20.3215C135.238 19.7474 134.318 19.1941 133.709 18.6615C133.094 18.1289 132.602 17.5133 132.236 16.8078C131.869 16.1022 131.689 15.2791 131.689 14.3315C131.689 12.5539 132.291 11.1567 133.495 10.1399C134.698 9.12317 136.365 8.61133 138.489 8.61133C139.533 8.61133 140.529 8.73583 141.477 8.98484C142.424 9.23384 143.413 9.57968 144.451 10.0293L143.074 13.3424C142.002 12.8998 141.117 12.5954 140.412 12.4225C139.713 12.2496 139.021 12.1597 138.343 12.1597C137.534 12.1597 136.919 12.3464 136.49 12.7199C136.061 13.0934 135.846 13.5845 135.846 14.1932C135.846 14.5667 135.936 14.8987 136.109 15.1754C136.282 15.4521 136.559 15.7218 136.939 15.9847C137.32 16.2475 138.219 16.7178 139.637 17.3957C141.518 18.2949 142.805 19.1941 143.496 20.1002C144.209 20.9924 144.555 22.0991 144.555 23.4133Z" fill="#CC00FF"/>
</g>
</g>
<g id="Clip path group_7">
<mask id="mask6_3468_283" style="mask-type:luminance" maskUnits="userSpaceOnUse" x="0" y="0" width="204" height="40">
<g id="SVGID_2__7">
<path id="Vector_13" d="M203.223 0H0V40H203.223V0Z" fill="white"/>
</g>
</mask>
<g mask="url(#mask6_3468_283)">
<path id="Vector_14" d="M164.669 28.9884H160.415V20.3147H152.461V28.9884H148.2V8.89502H152.461V16.7733H160.415V8.89502H164.669V28.9884Z" fill="#CC00FF"/>
</g>
</g>
<g id="Clip path group_8">
<mask id="mask7_3468_283" style="mask-type:luminance" maskUnits="userSpaceOnUse" x="0" y="0" width="204" height="40">
<g id="SVGID_2__8">
<path id="Vector_15" d="M203.223 0H0V40H203.223V0Z" fill="white"/>
</g>
</mask>
<g mask="url(#mask7_3468_283)">
<path id="Vector_16" d="M174 8.89502H169.739V28.9953H174V8.89502Z" fill="#CC00FF"/>
</g>
</g>
<g id="Clip path group_9">
<mask id="mask8_3468_283" style="mask-type:luminance" maskUnits="userSpaceOnUse" x="0" y="0" width="204" height="40">
<g id="SVGID_2__9">
<path id="Vector_17" d="M203.223 0H0V40H203.223V0Z" fill="white"/>
</g>
</mask>
<g mask="url(#mask8_3468_283)">
<path id="Vector_18" d="M192.945 15.1617C192.945 17.3266 192.267 18.9798 190.918 20.1279C189.569 21.2761 187.646 21.8433 185.15 21.8433H183.323V28.9884H179.063V8.89502H185.482C187.916 8.89502 189.77 9.4207 191.043 10.4721C192.308 11.5165 192.945 13.0797 192.945 15.1617ZM183.317 18.3503H184.721C186.035 18.3503 187.01 18.0944 187.66 17.5756C188.311 17.0569 188.636 16.3029 188.636 15.3138C188.636 14.3178 188.366 13.5777 187.819 13.1005C187.273 12.6232 186.422 12.388 185.253 12.388H183.317V18.3503Z" fill="#CC00FF"/>
</g>
</g>
</g>
<g id="Group_2">
<g id="Clip path group_10">
<mask id="mask9_3468_283" style="mask-type:luminance" maskUnits="userSpaceOnUse" x="35" y="7" width="24" height="23">
<g id="SVGID_4_">
<path id="Vector_19" d="M45.907 27.8334C45.907 27.37 46.2805 26.9965 46.7439 26.9965C47.2073 26.9965 47.5808 27.37 47.5808 27.8334C47.5808 28.2968 47.2073 28.6703 46.7439 28.6703C46.2805 28.6703 45.907 28.2968 45.907 27.8334ZM44.3922 25.0667C43.9564 24.9076 43.7282 24.4303 43.8803 23.9946C44.0325 23.5588 44.5167 23.3306 44.9524 23.4827C45.3882 23.6349 45.6165 24.1191 45.4574 24.5548C45.3329 24.9007 45.0147 25.1151 44.6689 25.1151C44.5789 25.1151 44.4821 25.1013 44.3922 25.0667ZM52.3119 21.2832C51.8762 21.131 51.6479 20.6468 51.807 20.2111C51.9592 19.7753 52.4434 19.547 52.8791 19.7061C53.3149 19.8583 53.5431 20.3425 53.391 20.7782C53.2665 21.1241 52.9483 21.3385 52.6025 21.3385C52.4987 21.3316 52.4088 21.3178 52.3119 21.2832ZM36.4932 18.4265C36.4932 17.9631 36.8667 17.5896 37.3301 17.5896C37.7935 17.5896 38.167 17.9631 38.167 18.4265C38.167 18.8899 37.7935 19.2635 37.3301 19.2635C36.8736 19.2635 36.4932 18.8899 36.4932 18.4265ZM55.3138 18.4265C55.3138 17.9631 55.6874 17.5896 56.1508 17.5896C56.6142 17.5896 56.9877 17.9631 56.9877 18.4265C56.9877 18.8899 56.6142 19.2635 56.1508 19.2635C55.6874 19.2635 55.3138 18.8899 55.3138 18.4265ZM40.6087 17.1469C40.1729 16.9947 39.9447 16.5106 40.0968 16.0748C40.2559 15.639 40.7332 15.4108 41.1689 15.5699C41.6047 15.729 41.833 16.2062 41.6739 16.642C41.5494 16.9809 41.2312 17.2022 40.8854 17.2022C40.7954 17.1953 40.6986 17.1746 40.6087 17.1469ZM48.5284 13.3634C48.0927 13.2112 47.8644 12.7271 48.0235 12.2913C48.1757 11.8555 48.6599 11.6273 49.0956 11.7795C49.5314 11.9385 49.7596 12.4158 49.6075 12.8516C49.483 13.1974 49.1648 13.4118 48.819 13.4118C48.7152 13.4118 48.6253 13.398 48.5284 13.3634ZM54.3662 21.1241C54.6706 20.2595 54.3109 19.3188 53.5431 18.8692C54.0965 15.0373 52.0975 11.3783 48.5976 9.2894C48.6045 9.26173 48.6045 9.23406 48.6045 9.2064C52.1459 9.9465 54.7813 13.1144 55.4453 16.6766C54.7536 16.9532 54.2625 17.6311 54.2625 18.4265C54.2625 19.3672 54.9542 20.1488 55.8603 20.2871C53.972 23.3651 50.1124 24.7762 46.5433 24.209C46.5156 23.462 46.0384 22.7772 45.2914 22.5074C44.3092 22.1616 43.2371 22.6735 42.8912 23.6487C42.5454 24.624 43.0572 25.703 44.0325 26.0489C44.8971 26.3532 45.8378 25.9935 46.2874 25.2258C50.1262 25.7791 53.7714 23.7801 55.8672 20.2802C55.8949 20.2871 55.9225 20.2871 55.9502 20.2871C55.2101 23.8286 52.0422 26.4639 48.48 27.1279C48.2033 26.4362 47.5255 25.9451 46.7301 25.9451C45.7894 25.9451 45.0078 26.6437 44.8694 27.5498C41.7915 25.6615 40.3804 21.8019 40.9476 18.2329C41.6946 18.2052 42.3863 17.7279 42.6491 16.9809C42.995 15.9987 42.4901 14.9266 41.5079 14.5808C40.5326 14.2349 39.4536 14.7468 39.1077 15.722C38.8034 16.5866 39.1631 17.5273 39.9308 17.9769C39.3775 21.8158 41.3764 25.4678 44.8764 27.5567C44.8694 27.5844 44.8694 27.6121 44.8625 27.6397C41.3211 26.8996 38.6858 23.7317 38.0218 20.1696C38.7135 19.8929 39.2046 19.215 39.2046 18.4196C39.2046 17.4789 38.506 16.6973 37.6068 16.559C39.4951 13.481 43.3547 12.07 46.9237 12.6371C46.9514 13.3842 47.4287 14.0689 48.1757 14.3387C49.151 14.6845 50.23 14.1727 50.5758 13.1974C50.9217 12.2152 50.4098 11.1431 49.4345 10.7973C48.5699 10.4929 47.6293 10.8526 47.1797 11.6204C43.3408 11.067 39.6887 13.066 37.5999 16.5659C37.5722 16.559 37.5445 16.559 37.5169 16.559C38.257 13.0176 41.4249 10.3823 44.987 9.71824C45.2637 10.4099 45.9416 10.901 46.737 10.901C47.6777 10.901 48.4593 10.2024 48.5976 9.30323C51.6756 11.1915 53.0866 15.0511 52.5194 18.6202C51.7724 18.6479 51.0877 19.1251 50.8179 19.8721C50.4721 20.8543 50.9839 21.9264 51.9592 22.2723C52.1667 22.3484 52.3811 22.3829 52.5886 22.3829C53.3633 22.376 54.0896 21.8919 54.3662 21.1241ZM45.907 9.01964C45.907 8.55621 46.2805 8.1827 46.7439 8.1827C47.2073 8.1827 47.5808 8.55621 47.5808 9.01964C47.5808 9.48307 47.2073 9.85658 46.7439 9.85658C46.2805 9.85658 45.907 9.48307 45.907 9.01964ZM44.8902 8.66688C41.0859 9.43465 38.3123 12.5472 37.5238 16.559C37.4615 16.5521 37.3993 16.5521 37.3301 16.5521C36.2926 16.5521 35.4487 17.3959 35.4487 18.4334C35.4487 19.3534 36.1058 20.1142 36.9773 20.2802C37.7451 24.0845 40.8577 26.8581 44.8625 27.6466C44.8556 27.7089 44.8556 27.7712 44.8556 27.8334C44.8556 28.8709 45.6995 29.7148 46.737 29.7148C47.6569 29.7148 48.4178 29.0577 48.5838 28.1862C52.388 27.4184 55.1617 24.3058 55.9502 20.2941C56.0124 20.301 56.0747 20.301 56.1439 20.301C57.1814 20.301 58.0252 19.4571 58.0252 18.4196C58.0252 17.4997 57.3681 16.7388 56.4966 16.5728C55.7289 12.7686 52.6163 9.99491 48.6114 9.2064C48.6184 9.14414 48.6184 9.08189 48.6184 9.01272C48.6184 7.9752 47.7745 7.13135 46.737 7.13135C45.824 7.13826 45.0562 7.79536 44.8902 8.66688Z" fill="white"/>
</g>
</mask>
<g mask="url(#mask9_3468_283)">
<path id="Vector_20" d="M58.0321 7.13818H35.4556V29.7147H58.0321V7.13818Z" fill="url(#paint0_linear_3468_283)"/>
</g>
</g>
</g>
</g>
<defs>
<linearGradient id="paint0_linear_3468_283" x1="35.4533" y1="18.4257" x2="58.029" y2="18.4257" gradientUnits="userSpaceOnUse">
<stop stop-color="#CC00FF"/>
<stop offset="0.3" stop-color="#97509F"/>
<stop offset="0.7" stop-color="#13254A"/>
<stop offset="1" stop-color="#13254A"/>
</linearGradient>
<clipPath id="clip0_3468_283">
<rect width="203.223" height="40" fill="white"/>
</clipPath>
</defs>
</svg>
