<svg width="13" height="20" viewBox="0 0 13 20" fill="none" xmlns="http://www.w3.org/2000/svg">
<path id="icon" fill-rule="evenodd" clip-rule="evenodd" d="M9.28571 9.5C9.28571 11.16 8.04143 12.5 6.5 12.5C4.95857 12.5 3.71429 11.16 3.71429 9.5V3.5C3.71429 1.84 4.95857 0.5 6.5 0.5C8.04143 0.5 9.28571 1.84 9.28571 3.5V9.5ZM6.5 14.5C9.06286 14.5 11.1429 12.26 11.1429 9.5H13C13 13.03 10.5764 15.93 7.42857 16.42V19.5H5.57143V16.42C2.42357 15.93 0 13.03 0 9.5H1.85714C1.85714 12.26 3.93714 14.5 6.5 14.5Z" fill="black"/>
</svg>
