<svg width="37" height="25" viewBox="0 0 37 25" fill="none" xmlns="http://www.w3.org/2000/svg">
<g id="Group 108">
<rect id="Rectangle 106" width="37" height="25" rx="4" fill="#CC00FF"/>
<path id="&#239;&#134;&#147;" d="M28.6097 18.4361L28.9751 19.194C29.0083 19.3384 29.0083 19.4467 28.9751 19.5549C28.9419 19.6632 28.8754 19.7354 28.7758 19.7715L26.683 20.9625C26.4836 21.0707 26.2511 21.0707 26.0518 20.9986C25.8525 20.9264 25.6864 20.7459 25.6199 20.5294L23.4275 15.2602H18.1124C17.913 15.2602 17.7137 15.188 17.5809 15.0436C17.4148 14.8993 17.3151 14.7188 17.3151 14.5023L16.2521 5.73234C16.2521 5.26316 16.385 4.86617 16.7171 4.50526C17.0493 4.14436 17.4148 4 17.8798 4C18.3117 4.03609 18.6771 4.21654 18.9761 4.50526C19.2418 4.83008 19.4079 5.22707 19.4411 5.66016C19.4411 6.12933 19.3415 6.52632 19.0757 6.85114C18.81 7.21204 18.4778 7.39249 18.0791 7.46467L18.3781 10.0632H23.2946C23.3942 10.0632 23.4939 10.1354 23.5603 10.2075C23.6268 10.2797 23.6932 10.388 23.6932 10.4963V11.3624C23.6932 11.5068 23.6268 11.6151 23.5603 11.6872C23.4939 11.7594 23.3942 11.7955 23.2946 11.7955H18.6106L18.81 13.5279H23.959C24.0918 13.5279 24.2579 13.6 24.3908 13.6722C24.5237 13.7805 24.6234 13.8888 24.6898 14.0331L26.7162 18.9775L28.0782 18.2196C28.1446 18.1835 28.2443 18.1835 28.3771 18.2196C28.4768 18.2557 28.5432 18.3279 28.6097 18.4361ZM22.3977 16.9925H22.0322C21.8329 18.0752 21.3346 18.9775 20.5374 19.6993C19.7401 20.4211 18.8432 20.7459 17.8466 20.7459C17.0493 20.7459 16.3517 20.5655 15.6873 20.1324C15.023 19.7354 14.5247 19.194 14.1593 18.4722C13.7606 17.7504 13.5945 16.9925 13.5945 16.1264C13.5945 15.3685 13.7606 14.6467 14.0928 13.9609C14.425 13.3113 14.8569 12.7339 15.4548 12.3008L15.2223 10.4602C14.2257 11.0015 13.4617 11.7594 12.8637 12.77C12.2658 13.7805 12 14.8993 12 16.1264C12 17.2812 12.2325 18.364 12.764 19.3384C13.2956 20.3128 13.9932 21.0707 14.8901 21.6482C15.787 22.2256 16.7836 22.4783 17.8466 22.4783C18.9761 22.4783 20.0391 22.1534 21.0024 21.4677C21.9326 20.8181 22.6634 19.9158 23.1617 18.797L22.3977 16.9925Z" fill="white"/>
</g>
</svg>
