<svg width="35" height="25" viewBox="0 0 35 25" fill="none" xmlns="http://www.w3.org/2000/svg">
<path id="Vector" d="M14.1 17.8571L22.923 12.5L14.1 7.14286V17.8571ZM33.752 3.875C33.973 4.71429 34.126 5.83928 34.228 7.26786C34.347 8.69643 34.398 9.92857 34.398 11L34.5 12.5C34.5 16.4107 34.228 19.2857 33.752 21.125C33.327 22.7321 32.341 23.7679 30.811 24.2143C30.012 24.4464 28.55 24.6071 26.306 24.7143C24.096 24.8393 22.073 24.8929 20.203 24.8929L17.5 25C10.377 25 5.94 24.7143 4.189 24.2143C2.659 23.7679 1.673 22.7321 1.248 21.125C1.027 20.2857 0.874 19.1607 0.772 17.7321C0.653 16.3036 0.602 15.0714 0.602 14L0.5 12.5C0.5 8.58929 0.772 5.71429 1.248 3.875C1.673 2.26786 2.659 1.23214 4.189 0.785714C4.988 0.553572 6.45 0.392857 8.694 0.285714C10.904 0.160714 12.927 0.107143 14.797 0.107143L17.5 0C24.623 0 29.06 0.285714 30.811 0.785714C32.341 1.23214 33.327 2.26786 33.752 3.875Z" fill="#09244B"/>
</svg>
